# xmcd
#
# Track frame offsets: 
#        150
#        23677
#        48570
#        62980
#        94465
#        113925
#        133857
#        150555
#        164047
#        180705
#
# Disc length: 2624 seconds
#
# Revision: 0
# Processed by: cddbd v1.4PL0 Copyright (c) Steve Scherf et al.
# Submitted via: ExactAudioCopy v0.90b4
#
DISCID=8f0a3e0a
DTITLE=Hubert Sumlin - Blues Guitar Boss
DYEAR=1990
DGENRE=Blues
TTITLE0=All I Can Do
TTITLE1=You Got to Help Me
TTITLE2=Blues is Here to Stay
TTITLE3=Sometimes I'm Right
TTITLE4=Spanish Greens
TTITLE5=Still Playing the Blues
TTITLE6=I Could be You
TTITLE7=Pickin'
TTITLE8=Look Don't Touch
TTITLE9=I've Stopped Crying
EXTD=
EXTT0=
EXTT1=
EXTT2=
EXTT3=
EXTT4=
EXTT5=
EXTT6=
EXTT7=
EXTT8=
EXTT9=
PLAYORDER=
